<?xml version="1.0" standalone="no"?>
<!DOCTYPE svg PUBLIC "-//W3C//DTD SVG 20010904//EN"
 "http://www.w3.org/TR/2001/REC-SVG-20010904/DTD/svg10.dtd">
<svg version="1.0" xmlns="http://www.w3.org/2000/svg"
 width="1991.000000pt" height="1991.000000pt" viewBox="0 0 1991.000000 1991.000000"
 preserveAspectRatio="xMidYMid meet">
<metadata>
Created by potrace 1.14, written by Peter Selinger 2001-2017
</metadata>
<g transform="translate(0.000000,1991.000000) scale(0.100000,-0.100000)"
fill="#000000" stroke="none">
<path d="M15336 18853 c-3 -3 -193 -13 -356 -18 -180 -5 -374 -15 -397 -19
-10 -2 -43 -7 -74 -10 -31 -4 -67 -9 -80 -11 -13 -3 -40 -8 -59 -11 -357 -61
-704 -213 -965 -423 -148 -119 -441 -432 -557 -596 -58 -82 -90 -144 -165
-320 -193 -456 -447 -809 -825 -1149 -141 -127 -225 -176 -299 -176 -21 0 -39
3 -39 8 0 15 43 88 73 122 16 19 60 67 96 105 125 130 368 442 467 600 70 110
104 175 148 280 21 50 41 99 46 110 5 11 13 34 19 50 5 17 26 73 46 125 171
449 212 625 185 790 -5 30 -11 69 -13 85 -3 17 -10 43 -16 59 l-12 29 -35 -34
c-19 -19 -60 -74 -91 -124 -139 -224 -298 -372 -647 -601 -54 -36 -292 -171
-406 -231 -318 -169 -686 -366 -695 -373 -5 -4 -45 -26 -87 -49 -123 -66 -442
-257 -583 -350 -337 -221 -582 -418 -830 -666 -374 -372 -582 -695 -644 -996
-6 -30 -14 -65 -17 -79 -11 -53 -5 -250 10 -332 46 -247 155 -449 349 -647
193 -197 420 -330 707 -415 52 -15 119 -28 219 -42 89 -12 321 -6 409 11 9 1
47 6 84 10 l66 7 82 -122 c45 -67 78 -126 73 -130 -4 -4 -48 -34 -98 -67 -49
-33 -124 -93 -165 -132 l-75 -72 110 6 c61 3 178 8 260 10 l150 4 168 -252
c92 -139 167 -256 167 -260 0 -4 -9 -7 -20 -7 -22 0 -261 -60 -335 -85 -78
-26 -264 -101 -330 -134 l-60 -30 180 -1 c154 -1 292 -3 685 -9 l65 -1 105
-159 105 -159 50 28 c27 15 78 42 113 60 34 18 65 36 68 41 3 5 -15 39 -39 76
-25 38 -43 70 -41 72 9 9 153 -70 185 -103 58 -57 87 -136 84 -228 -1 -21 2
-38 7 -38 4 0 39 21 78 46 39 25 74 44 77 41 9 -10 11 -156 2 -194 -8 -38 -7
-37 66 42 51 54 78 76 85 69 12 -12 60 -151 60 -176 0 -28 20 -30 84 -8 33 11
60 19 62 18 1 -2 20 -39 42 -84 57 -118 110 -270 138 -399 10 -45 20 -161 18
-209 -6 -167 -50 -279 -153 -388 -19 -21 -33 -40 -30 -42 2 -2 31 -16 64 -31
33 -15 56 -29 50 -30 -24 -7 -470 -150 -560 -180 -146 -47 -419 -135 -915
-295 -157 -50 -296 -95 -310 -100 -14 -5 -126 -41 -250 -81 -275 -87 -684
-223 -725 -240 -16 -7 -32 -13 -35 -14 -3 -1 -14 -5 -25 -10 -11 -4 -51 -20
-90 -36 -38 -15 -96 -39 -127 -53 -31 -14 -59 -26 -62 -26 -3 0 -65 -27 -138
-61 -73 -34 -158 -73 -188 -86 -30 -14 -251 -122 -490 -241 -563 -278 -808
-396 -975 -467 -16 -7 -50 -22 -75 -33 -364 -160 -910 -329 -1190 -367 -25 -3
-72 -10 -105 -15 -33 -5 -91 -12 -130 -15 -38 -3 -88 -8 -110 -11 -61 -7 -365
-6 -455 2 -44 3 -80 2 -80 -2 0 -19 106 -149 189 -232 171 -174 381 -309 686
-442 64 -28 266 -97 335 -115 112 -30 116 -32 85 -38 -16 -4 -48 -9 -70 -13
-22 -3 -47 -7 -55 -9 -8 -3 -35 -7 -60 -10 -25 -3 -52 -8 -60 -10 -8 -2 -30
-7 -47 -10 -18 -3 -46 -7 -63 -10 -16 -3 -45 -7 -62 -10 -48 -8 -138 -23 -173
-30 -16 -3 -46 -8 -65 -11 -45 -7 -138 -23 -170 -29 -45 -9 -155 -27 -168 -28
-42 -2 99 -52 313 -112 28 -7 100 -28 160 -45 104 -30 364 -96 413 -105 12 -2
30 -6 40 -9 9 -3 28 -7 42 -10 14 -3 81 -17 150 -31 69 -15 136 -29 150 -31
14 -2 34 -6 45 -9 29 -6 304 -54 347 -60 21 -3 55 -7 75 -10 21 -3 70 -10 108
-15 77 -12 104 -15 185 -24 30 -4 71 -9 90 -11 40 -6 107 -13 200 -20 36 -3
85 -7 110 -10 25 -2 88 -7 140 -10 52 -3 113 -8 135 -10 213 -24 1149 -24
1445 0 30 2 100 7 155 10 55 4 116 8 135 10 19 2 76 6 125 10 144 12 148 12
200 19 28 3 75 8 105 11 30 3 71 8 90 10 19 2 60 7 90 10 30 4 66 8 80 10 14
2 48 6 75 10 28 3 59 7 71 9 12 2 45 7 74 11 29 4 61 8 70 10 9 2 41 6 71 10
30 3 61 8 69 10 8 2 33 7 55 10 23 3 52 7 65 10 13 3 40 7 60 10 19 3 87 14
150 26 63 11 129 22 145 25 17 2 50 9 75 14 25 5 61 12 80 15 19 4 53 10 75
15 57 14 59 13 30 -18 -44 -45 -138 -172 -200 -267 -174 -269 -211 -325 -253
-380 -49 -63 -78 -99 -100 -121 -7 -8 -11 -14 -8 -14 7 0 350 150 471 205 184
84 557 275 645 328 19 12 37 22 40 22 3 0 16 8 30 16 14 9 77 47 140 84 611
362 1115 827 1406 1297 204 330 350 721 405 1086 7 45 15 79 19 75 11 -13 32
-93 50 -198 20 -109 24 -286 9 -400 -72 -536 -469 -1111 -1139 -1650 -174
-139 -379 -284 -647 -455 -249 -159 -763 -428 -1098 -575 -71 -31 -143 -63
-160 -70 -16 -8 -54 -24 -84 -35 -30 -12 -73 -29 -95 -39 -23 -10 -104 -42
-181 -70 -77 -29 -149 -57 -160 -62 -47 -21 -249 -89 -253 -85 -7 8 66 114
314 458 131 180 207 299 246 385 33 73 34 86 11 79 -10 -3 -34 -8 -53 -11 -19
-3 -60 -11 -90 -17 -30 -6 -62 -12 -70 -13 -8 -2 -31 -6 -50 -9 -49 -10 -248
-44 -290 -51 -19 -3 -46 -7 -60 -10 -14 -3 -41 -7 -60 -9 -19 -2 -78 -11 -130
-20 -52 -8 -117 -17 -145 -21 -27 -3 -84 -10 -125 -15 -104 -14 -136 -18 -205
-25 -33 -3 -76 -8 -95 -10 -19 -3 -64 -7 -100 -10 -36 -3 -85 -8 -110 -10 -25
-3 -85 -7 -135 -11 -49 -3 -112 -7 -140 -9 -489 -35 -1324 -20 -1685 30 -19 3
-57 7 -85 10 -72 7 -157 17 -180 21 -10 2 -37 6 -60 9 -64 9 -298 47 -320 52
-11 2 -45 8 -75 13 -472 82 -1155 286 -1686 504 l-61 25 -289 -5 c-159 -2
-314 -6 -344 -9 -30 -2 -104 -7 -165 -10 -60 -3 -126 -8 -145 -10 -19 -2 -71
-7 -115 -10 -142 -11 -235 -20 -305 -30 -14 -2 -50 -7 -80 -10 -30 -3 -67 -8
-81 -11 -14 -2 -52 -6 -85 -9 -32 -3 -66 -8 -74 -10 -8 -2 -35 -7 -60 -10
-152 -21 -413 -70 -725 -135 -35 -8 -129 -30 -190 -46 -11 -3 -31 -7 -45 -10
-43 -9 -210 -54 -335 -90 -66 -20 -124 -36 -130 -38 -39 -9 -413 -130 -450
-146 -11 -4 -67 -25 -125 -45 -113 -41 -457 -177 -492 -196 -19 -10 -10 -15
82 -39 290 -76 500 -136 500 -141 0 -8 -335 -451 -422 -558 -15 -19 -26 -36
-24 -38 1 -2 74 13 162 32 87 20 175 38 194 41 19 3 64 12 100 20 36 8 81 17
100 20 19 3 67 12 105 19 39 8 84 16 100 19 50 8 278 47 305 51 14 3 45 8 70
11 25 3 54 8 64 10 11 2 56 8 100 14 105 14 145 20 176 26 14 2 54 6 90 9 36
4 72 8 80 10 8 2 44 7 80 10 36 3 76 8 90 10 14 2 59 7 100 11 41 3 86 8 100
9 107 11 345 31 490 40 47 3 112 8 145 10 415 28 1203 33 1680 11 217 -11 330
-18 334 -21 2 -2 -15 -55 -37 -117 -109 -305 -149 -423 -146 -427 1 -2 45 4
96 14 51 9 102 19 113 20 73 13 161 29 215 40 14 2 41 7 60 10 19 3 46 8 60
10 14 3 36 7 50 10 14 3 36 7 50 10 14 2 41 7 60 10 19 3 46 8 60 10 14 3 36
7 50 10 14 3 48 9 75 15 28 5 66 12 85 15 19 3 71 13 115 21 44 9 94 18 110
20 17 3 50 9 75 14 25 5 86 16 135 25 50 9 104 19 120 22 17 4 37 7 45 8 16 3
30 5 165 31 44 8 97 17 117 20 20 3 64 11 97 18 45 9 58 9 51 1 -5 -6 -86 -88
-179 -180 -94 -93 -169 -170 -167 -172 2 -3 296 49 376 67 25 5 56 12 70 14
14 2 122 23 240 46 118 23 226 44 240 46 14 3 88 18 165 34 77 15 156 31 175
34 19 3 61 12 93 20 l59 14 -39 -40 c-21 -22 -112 -114 -203 -205 -153 -153
-162 -164 -130 -158 19 3 87 15 150 26 63 11 124 22 135 24 11 1 36 6 55 9 45
8 137 25 175 31 17 3 66 12 110 20 44 7 96 17 115 20 19 3 44 7 55 9 11 2 40
7 65 10 25 4 52 9 60 11 8 2 33 7 55 10 22 3 89 14 148 24 l109 18 -7 -52 c-3
-29 -8 -63 -12 -76 -3 -13 -7 -105 -8 -204 -4 -202 8 -300 57 -480 17 -60 30
-132 30 -160 -1 -27 -2 -135 -4 -240 -2 -104 -2 -200 1 -212 6 -22 8 -21 81
22 41 24 80 44 87 45 6 0 19 -24 28 -52 53 -163 132 -267 220 -290 28 -7 55
-17 60 -23 6 -5 78 -91 160 -190 83 -99 231 -277 330 -395 99 -118 187 -224
197 -235 147 -174 448 -537 448 -542 0 -5 -169 1 -355 12 -22 1 -96 5 -165 9
-69 4 -143 9 -165 11 -22 3 -73 7 -114 10 -75 5 -141 12 -196 20 -16 3 -48 7
-70 11 -80 12 -204 44 -346 89 -132 43 -271 76 -439 106 -94 16 -98 17 -206
40 -55 12 -115 24 -135 28 -19 4 -40 10 -45 13 -5 3 -25 9 -44 12 -34 5 -305
83 -525 151 -322 99 -757 224 -839 241 -10 2 -33 8 -50 13 -17 6 -67 17 -111
26 -44 9 -89 19 -100 21 -18 4 -181 28 -265 40 -19 3 -46 7 -60 9 -14 3 -51 7
-83 10 -32 4 -66 8 -75 10 -10 2 -45 6 -77 10 -33 4 -71 8 -85 10 -14 2 -52 7
-85 11 -33 3 -68 8 -78 10 -10 2 -48 6 -85 9 -37 4 -78 8 -92 10 -14 2 -56 7
-95 11 -38 3 -77 8 -86 9 -8 2 -53 6 -100 10 -46 4 -91 8 -99 10 -9 2 -56 6
-106 10 -49 4 -96 9 -105 10 -8 2 -49 6 -90 10 -41 4 -86 8 -102 10 -15 2 -62
6 -105 10 -42 4 -85 9 -94 11 -9 3 -41 7 -71 9 -30 2 -67 6 -83 9 -16 3 -73
12 -127 21 -86 13 -153 27 -207 41 -23 6 -593 134 -615 138 -11 2 -121 29
-245 60 -310 77 -436 119 -704 232 -121 52 -497 235 -521 254 -5 4 -26 17 -45
27 -91 51 -514 305 -779 468 -52 31 -108 63 -125 70 -42 18 -162 13 -288 -11
-39 -8 -36 -36 8 -70 20 -16 42 -33 48 -39 6 -5 25 -19 41 -31 17 -11 62 -42
100 -69 91 -64 708 -491 760 -526 82 -56 235 -141 403 -226 96 -47 176 -93
179 -100 13 -33 -32 -42 -137 -30 -30 4 -68 9 -85 11 -16 2 -64 7 -105 11 -41
4 -93 9 -115 11 -22 2 -76 6 -120 9 -44 3 -100 8 -125 10 -281 26 -406 29
-1300 28 -1006 -1 -1154 -5 -1262 -39 -47 -15 -62 -32 -52 -59 12 -30 76 -38
304 -41 206 -2 479 -8 860 -19 80 -2 240 -7 355 -11 116 -3 228 -7 250 -9 22
-1 87 -6 145 -9 58 -4 121 -9 140 -11 19 -2 69 -7 110 -10 41 -4 89 -8 105
-10 17 -2 55 -6 85 -9 30 -4 71 -9 90 -11 19 -3 54 -7 78 -10 23 -3 59 -7 81
-10 21 -3 56 -8 77 -10 22 -3 50 -7 64 -10 14 -2 45 -7 70 -10 25 -3 56 -8 70
-10 35 -7 78 -13 130 -20 25 -3 77 -10 115 -15 98 -13 132 -18 280 -35 72 -9
144 -18 160 -20 31 -5 243 -31 325 -41 25 -3 56 -7 70 -9 14 -2 52 -7 85 -11
33 -3 67 -8 75 -9 9 -2 43 -6 75 -10 65 -7 81 -9 200 -24 44 -6 104 -13 133
-16 28 -3 73 -7 100 -10 26 -3 74 -7 107 -10 97 -8 125 -16 125 -36 0 -12 -41
-29 -100 -41 -25 -5 -54 -11 -65 -13 -85 -18 -436 -97 -460 -104 -30 -9 -196
-48 -232 -55 -75 -15 -233 -62 -259 -77 -100 -61 -36 -147 101 -136 33 3 116
17 184 32 144 31 372 73 586 110 17 3 50 9 75 15 25 5 79 14 120 20 41 7 91
15 110 20 19 5 58 11 85 15 28 3 57 8 65 10 16 4 50 9 135 21 28 3 58 8 67 9
102 20 562 27 753 12 287 -22 502 -51 735 -97 58 -12 114 -23 125 -25 11 -3
72 -16 135 -31 63 -14 122 -27 130 -29 8 -2 44 -11 80 -20 36 -9 72 -19 80
-20 210 -50 724 -204 817 -246 24 -10 45 -19 48 -19 3 0 27 -9 53 -21 26 -12
56 -25 67 -30 96 -41 321 -152 327 -162 4 -6 5 -21 3 -32 -2 -11 -4 -23 -4
-26 -1 -4 -14 -22 -31 -40 -16 -19 -41 -58 -55 -87 -21 -44 -33 -57 -69 -73
-48 -21 -187 -56 -256 -64 -25 -3 -56 -7 -70 -10 -99 -18 -436 -35 -1005 -50
-206 -5 -356 -12 -425 -20 -19 -2 -64 -6 -100 -10 -36 -3 -81 -8 -100 -11 -19
-2 -60 -6 -90 -9 -128 -11 -230 -44 -309 -98 -115 -80 -148 -87 -476 -95 -335
-8 -1457 -7 -1985 2 -464 7 -558 12 -700 35 -254 41 -528 30 -745 -29 -22 -7
-94 -29 -160 -50 -110 -35 -220 -66 -270 -76 -11 -2 -31 -6 -45 -9 -14 -3 -52
-8 -85 -10 -122 -10 -172 -17 -260 -36 -162 -35 -366 -110 -395 -144 -19 -23
-1 -54 41 -76 69 -35 153 -33 389 6 31 5 132 14 232 20 43 3 108 10 145 15
159 24 199 25 553 21 74 -1 144 0 155 2 21 5 101 17 149 23 15 2 35 6 45 8 9
3 41 8 71 11 30 3 66 8 80 10 114 18 430 23 624 10 274 -18 879 -28 1831 -29
683 -1 822 2 890 19 11 2 39 9 62 15 23 5 66 21 95 33 61 27 139 54 183 62
119 23 202 32 350 40 76 4 186 10 340 20 218 13 266 16 358 20 56 3 140 7 187
10 47 2 148 7 225 10 259 10 444 24 505 40 8 2 38 6 65 10 28 3 73 10 100 16
28 5 149 28 270 49 121 22 227 42 235 45 8 2 33 6 55 9 22 4 51 8 65 11 34 7
58 11 110 20 25 4 54 9 65 11 11 2 40 6 65 9 25 3 59 8 75 10 17 3 53 7 80 10
28 4 115 15 195 26 176 23 188 23 192 3 3 -13 6 -13 24 4 20 19 83 33 219 49
85 10 538 10 765 0 91 -4 224 -10 295 -13 72 -3 153 -7 180 -7 44 -2 51 -5 55
-25 l5 -23 23 21 c22 20 29 21 190 15 92 -3 192 -8 222 -10 30 -2 125 -7 210
-10 85 -3 193 -8 240 -10 47 -3 137 -7 200 -10 63 -3 151 -7 195 -10 44 -3
132 -7 195 -10 63 -3 151 -8 195 -10 44 -2 150 -7 235 -10 85 -3 193 -8 240
-10 47 -2 162 -7 255 -10 94 -3 224 -7 290 -10 146 -6 622 -20 1050 -30 121
-3 258 -7 305 -10 47 -2 159 -7 250 -10 91 -4 188 -8 215 -10 28 -2 113 -6
190 -10 77 -3 167 -8 200 -10 33 -2 110 -6 170 -10 61 -3 137 -7 170 -10 33
-2 105 -7 160 -11 55 -3 108 -10 118 -15 29 -16 19 -35 -27 -53 -52 -20 -64
-42 -39 -68 34 -34 114 -39 393 -24 74 4 149 9 165 11 17 2 77 7 135 10 58 4
121 9 140 10 216 17 1039 24 1325 11 245 -11 287 -14 457 -38 97 -13 162 -2
172 30 3 9 8 85 11 167 3 83 8 170 10 195 7 82 18 274 18 308 -2 106 -55 110
-1100 77 -136 -4 -335 -14 -393 -20 -19 -2 -87 -6 -150 -10 -63 -4 -131 -9
-150 -10 -221 -17 -560 -22 -810 -11 -160 6 -436 14 -722 21 -90 2 -449 7
-797 10 -545 6 -639 9 -665 22 -16 9 -44 20 -60 25 -93 27 -178 47 -231 53
-32 4 -68 9 -80 12 -11 3 -234 7 -495 9 -456 2 -511 4 -609 19 -57 8 -57 8
-229 172 -225 213 -396 391 -563 583 -125 144 -308 387 -411 545 -99 152 -97
148 -93 256 2 51 7 105 9 119 3 13 8 40 11 60 23 155 164 645 233 810 6 14 27
70 47 125 21 55 50 129 65 165 16 36 39 90 52 120 41 98 129 273 176 354 43
71 58 87 157 164 139 107 574 466 700 577 17 15 56 49 87 77 32 28 70 62 86
77 15 14 62 57 103 95 167 155 445 434 555 556 27 31 76 87 109 124 33 38 65
74 70 80 35 39 186 230 259 329 321 435 562 901 690 1334 42 140 88 329 88
361 1 31 11 35 34 13 31 -30 138 -151 147 -166 16 -30 25 -13 32 58 4 39 9 86
11 102 6 51 17 316 17 405 0 89 -12 363 -18 415 -2 17 -7 59 -10 95 -3 36 -8
76 -10 90 -2 14 -7 45 -10 70 -9 67 -24 159 -35 210 -5 25 -12 56 -14 70 -8
44 -47 213 -51 220 -2 3 -6 17 -8 31 -10 54 -70 246 -123 395 -187 526 -473
1015 -824 1409 -211 236 -508 482 -745 615 -61 34 -274 140 -282 140 -5 0 -42
13 -83 29 -96 38 -238 76 -324 87 -22 3 -43 7 -47 10 -12 7 -178 18 -274 18
-128 0 -234 -12 -355 -40 -36 -9 -72 -17 -80 -19 -30 -6 -162 -55 -213 -78
l-52 -24 58 -28 c31 -16 56 -29 55 -31 -2 -1 -37 5 -78 13 -131 25 -466 78
-555 88 -321 35 -630 38 -859 9 -69 -9 -228 -43 -293 -63 -46 -14 -65 -16 -72
-7 -38 47 -120 181 -114 186 5 4 37 17 73 29 56 20 216 99 245 123 5 4 53 41
105 81 85 65 483 389 600 487 25 21 59 49 75 62 17 12 41 33 55 45 128 111
476 388 558 444 95 65 286 169 311 169 6 0 19 4 29 10 31 17 197 65 297 86 47
9 138 25 172 30 20 2 48 6 62 8 14 3 55 7 91 11 36 3 81 8 100 10 19 2 64 7
100 10 36 4 81 8 100 10 19 2 60 7 90 10 322 33 613 104 817 201 168 79 261
148 416 306 121 124 183 206 226 299 31 67 78 218 87 279 2 19 9 55 14 80 5
25 17 97 25 160 9 63 18 126 20 140 5 34 15 134 20 195 8 115 15 205 20 290
16 244 61 391 162 533 26 37 53 73 60 80 61 63 112 173 118 258 l5 64 -27 1
c-179 10 -251 -21 -520 -223 -247 -185 -381 -333 -773 -858 -163 -218 -251
-332 -315 -409 -87 -105 -161 -184 -179 -191 -27 -10 -92 14 -129 49 -35 32
-49 85 -52 193 -4 160 31 304 122 512 52 119 163 333 204 392 16 23 29 47 29
53 0 6 4 11 8 11 4 0 16 14 26 31 45 76 158 194 326 340 47 41 94 82 105 92
133 122 410 327 580 430 101 61 137 79 265 133 60 26 89 55 92 92 4 50 -24 72
-89 69 -30 -1 -56 -3 -57 -4z m-4186 -5797 c224 -20 421 -56 588 -107 53 -17
102 -31 107 -33 12 -4 26 -9 133 -53 131 -53 422 -218 422 -238 0 -4 -5 -3
-10 0 -24 15 -673 7 -905 -11 -49 -4 -102 -8 -117 -8 -25 -1 -42 20 -178 224
-100 150 -146 227 -138 231 7 4 15 6 18 5 3 -2 39 -7 80 -10z m2615 -288 c81
-25 256 -146 330 -227 l19 -22 -48 21 c-26 11 -68 23 -92 25 -42 6 -46 4 -96
-46 -29 -28 -71 -60 -93 -72 -54 -27 -135 -27 -200 2 -68 30 -274 153 -279
168 -10 25 8 50 64 86 71 46 149 77 210 84 25 3 46 6 48 8 4 4 93 -13 137 -27z
m-2380 -8390 c-9 -89 -15 -498 -8 -530 l5 -28 31 18 c18 9 49 29 71 45 44 30
61 34 73 13 4 -7 29 -38 55 -67 84 -98 596 -710 1078 -1289 52 -63 105 -126
117 -140 54 -63 151 -185 149 -187 -1 -2 -155 -4 -342 -5 -335 -2 -482 4 -529
22 -14 5 -25 7 -25 4 0 -3 -26 18 -57 48 -32 29 -89 82 -127 118 -415 386
-784 816 -1015 1184 -51 82 -60 108 -67 201 -3 39 -7 90 -9 115 -6 81 41 128
340 348 143 105 261 191 263 191 2 1 1 -27 -3 -61z"/>
</g>
</svg>
